<?xml version="1.0" encoding="UTF-8" standalone="no"?>
<!-- Created with Inkscape (http://www.inkscape.org/) -->

<svg
   width="131.5992mm"
   height="131.59921mm"
   viewBox="0 0 131.5992 131.59921"
   version="1.1"
   id="svg1"
   xmlns="http://www.w3.org/2000/svg"
   xmlnsSvg="http://www.w3.org/2000/svg">
  <defs
     id="defs1" />
  <g
     id="layer1"
     transform="translate(-1354.1375,32.808333)">
    <path
       id="path2-2-56-53"
       style="fill:#ffffff;stroke-width:1"
       d="m 1419.9371,-32.808333 a 65.799622,65.799622 0 0 0 -65.7996,65.799601 65.799622,65.799622 0 0 0 65.7996,65.799601 65.799622,65.799622 0 0 0 65.7996,-65.799601 65.799622,65.799622 0 0 0 -65.7996,-65.799601 z m -5e-4,8.000028 c 31.8812,0 57.8006,25.9194683 57.8006,57.800606 0,31.881149 -25.9191,57.79854 -57.8006,57.79854 -31.8815,0 -57.7991,-25.917091 -57.7991,-57.79854 0,-31.8814377 25.9179,-57.800606 57.7991,-57.800606 z m 17.1374,33.9700197 a 8.0894432,8.0894432 0 0 0 -5.2363,1.9301143 c -1.4205,-0.01012 -3.2625,-0.01705 -5.3356,-0.01705 h -2.5518 c -4.4423,0 -8.0186,0.02849 -8.0186,0.06356 v 2.462382 c 0,0.03507 3.5763,0.06356 8.0186,0.06356 h 2.5518 c 1.2036,0 2.3178,-0.0025 3.3403,-0.0062 a 8.0894432,8.0894432 0 0 0 -0.8562,3.568774 h -3.76 v 15.764413 c -0.062,-2e-6 -0.1862,2e-6 -0.247,0 h -6.1252 -6.1268 c -1.0497,3.2e-5 -2.9515,-1.5e-5 -4.2659,0 a 8.0894432,8.0894432 0 0 0 -7.9545,-6.630603 8.0894432,8.0894432 0 0 0 -3.7171,0.925525 c -1.3797,-0.01903 -3.8713,-0.03204 -6.859,-0.03204 h -2.5518 c -4.4423,0 -8.0187,0.02797 -8.0187,0.06305 v 2.462382 c 0,0.03507 3.5764,0.06356 8.0187,0.06356 h 2.5518 c 1.4704,0 2.7703,-0.0039 3.9527,-0.0093 a 8.0894432,8.0894432 0 0 0 -1.3167,3.15743 c -3.0511,-2.1e-5 -6.2903,0 -8.5489,0 -7.5847,0 -8.6949,2.17e-4 -9.5017,0 -0.8068,-2.17e-4 -1.3107,0 -1.711,0 h -0.9586 -0.602 c -0.1134,0 -0.1142,-0.0012 3.0334,4.710823 3.1476,4.712072 9.4421,14.137448 13.5702,18.849496 4.1281,4.712048 6.09,4.71134 7.7463,4.71134 h 6.9179 13.7051 2.6366 2.6349 13.7052 6.9179 c 1.6563,0 3.6177,6.93e-4 7.7458,-4.71134 4.1281,-4.712048 10.4231,-14.137424 13.5707,-18.849496 3.1476,-4.712071 3.1484,-4.710823 3.035,-4.710823 h -0.6036 -0.9591 c -0.4003,0 -0.9042,-2.17e-4 -1.711,0 -0.2359,6.3e-5 -2.3358,-6e-6 -2.7776,0 l -10.971,-15.764413 h -4.2782 a 8.0894432,8.0894432 0 0 0 -8.089,-8.0651403 z" />
  </g>
</svg>
