<?xml version="1.0" encoding="UTF-8" standalone="no"?>
<!-- Created with Inkscape (http://www.inkscape.org/) -->

<svg
   width="131.02611mm"
   height="131.02612mm"
   viewBox="0 0 131.02611 131.02612"
   version="1.1"
   id="svg1"
   xmlns="http://www.w3.org/2000/svg"
   xmlnsSvg="http://www.w3.org/2000/svg">
  <defs
     id="defs1" />
  <g
     id="layer1"
     transform="translate(-488.44035,115.92536)">
    <path
       id="rect6"
       style="fill:#ffffff;fill-opacity:1;stroke:none;stroke-width:0.520651;stroke-dasharray:none;stroke-opacity:1"
       d="m 553.95365,-115.92536 c -36.2236,0 -65.51332,29.289204 -65.51332,65.512802 0,36.22357 29.28972,65.513309 65.51332,65.513309 36.22358,0 65.51279,-29.289739 65.51279,-65.513309 0,-36.223598 -29.28921,-65.512802 -65.51279,-65.512802 z m -5.2e-4,8.29665 a 57.215766,57.215766 0 0 1 57.21615,57.216152 57.215766,57.215766 0 0 1 -57.21615,57.2156292 57.215766,57.215766 0 0 1 -57.21563,-57.2156292 57.215766,57.215766 0 0 1 57.21563,-57.216152 z m -17.9896,6.93291 c -3.25982,0 -5.88439,2.624064 -5.88439,5.883882 v 35.980233 c 0,3.259818 2.62457,5.884395 5.88439,5.884395 h 35.97972 c 3.25981,0 5.88439,-2.624577 5.88439,-5.884395 v -35.980233 c 0,-3.259818 -2.62458,-5.883882 -5.88439,-5.883882 z m 7.28586,9.145182 h 11.40447 c 4.09081,0 7.05017,0.618218 8.87853,1.854667 1.84152,1.236449 2.76262,3.215837 2.76262,5.938656 0,1.433754 -0.3353,2.657225 -1.00614,3.67006 -0.67084,0.999682 -1.64432,1.74315 -2.92023,2.229838 1.63106,0.473533 2.89342,1.348219 3.78788,2.624129 0.89445,1.27591 1.34204,2.841164 1.34204,4.695837 0,2.841202 -0.96053,4.958807 -2.88096,6.353101 -1.92044,1.394294 -4.84039,2.091345 -8.76019,2.091345 h -12.60802 z m 7.59644,5.16971 v 6.234762 h 4.20284 c 1.19699,0 2.1046,-0.262951 2.72283,-0.789099 0.61822,-0.526149 0.92708,-1.302552 0.92708,-2.32854 0,-1.012836 -0.30886,-1.782238 -0.92708,-2.308387 -0.61823,-0.539302 -1.52584,-0.808736 -2.72283,-0.808736 z m 0,11.403955 v 7.714775 h 4.45916 c 1.52582,0 2.67046,-0.322334 3.43338,-0.966866 0.77607,-0.644532 1.16375,-1.618018 1.16375,-2.920235 0,-1.27591 -0.3812,-2.229429 -1.14411,-2.860808 -0.76292,-0.644531 -1.91404,-0.966866 -3.45302,-0.966866 z m -23.89208,32.200615 c -5.01055,0 -8.9297,1.28985 -11.75743,3.86953 -2.82773,2.56316 -4.24212,6.13503 -4.24212,10.71563 0,4.58059 1.41439,8.16074 4.24212,10.74043 2.82773,2.56314 6.74688,3.84473 11.75743,3.84473 1.43865,0 2.86907,-0.1323 4.29121,-0.39688 1.43866,-0.24805 2.85253,-0.62838 4.2416,-1.14101 v -7.26778 c -1.05833,0.81029 -2.2164,1.42214 -3.47318,1.83555 -1.24023,0.41341 -2.55437,0.62012 -3.94342,0.62012 -2.48047,0 -4.41576,-0.71934 -5.80482,-2.15801 -1.37252,-1.45521 -2.05879,-3.48093 -2.05879,-6.07715 0,-2.59622 0.68627,-4.61367 2.05879,-6.05234 1.38906,-1.45521 3.32435,-2.18282 5.80482,-2.18282 1.30637,0 2.56263,0.19844 3.76979,0.59532 1.2237,0.39687 2.43965,1.00872 3.64681,1.83554 v -7.24297 c -1.4056,-0.51262 -2.81947,-0.89296 -4.2416,-1.14101 -1.4056,-0.26458 -2.83601,-0.39688 -4.29121,-0.39688 z m 26.86295,0 c -4.16718,0 -7.2595,0.71107 -9.27695,2.13321 -2.01744,1.42214 -3.02565,3.60495 -3.02565,6.54843 0,2.72851 0.79375,4.76251 2.38125,6.10196 1.5875,1.33945 4.35736,2.25722 8.30957,2.75332 l 1.56218,0.19844 c 1.80247,0.21497 3.00136,0.5209 3.59668,0.91777 0.61185,0.38034 0.91829,0.96738 0.91829,1.76113 0,0.94257 -0.43822,1.65365 -1.31465,2.1332 -0.87644,0.47956 -2.18282,0.71934 -3.91914,0.71934 -1.91824,0 -3.81218,-0.21497 -5.68079,-0.64492 -1.85208,-0.42995 -3.66232,-1.07487 -5.43171,-1.93477 v 6.74688 c 2.06705,0.57878 4.07623,1.00872 6.02754,1.28984 1.96783,0.29765 3.86901,0.44649 5.70456,0.44649 4.33255,0 7.59023,-0.74415 9.77304,-2.23243 2.18281,-1.48827 3.27422,-3.71243 3.27422,-6.67246 0,-2.82773 -0.78548,-4.90305 -2.35644,-6.22597 -1.57096,-1.32292 -4.63022,-2.27376 -9.17774,-2.85254 l -1.56269,-0.22324 c -1.60403,-0.1819 -2.72025,-0.46302 -3.34864,-0.84336 -0.61184,-0.38034 -0.91725,-0.92605 -0.91725,-1.63711 0,-0.87644 0.40514,-1.52136 1.21543,-1.93477 0.82682,-0.42995 2.08308,-0.64492 3.76979,-0.64492 1.57097,0 3.24167,0.19844 5.01107,0.59531 1.7694,0.39687 3.60495,0.99219 5.50664,1.78594 v -6.74688 c -2.11667,-0.52916 -4.07624,-0.91777 -5.87871,-1.16582 -1.80247,-0.24804 -3.52278,-0.37207 -5.1599,-0.37207 z m 30.23744,0 c -4.16719,0 -7.26003,0.71107 -9.27747,2.13321 -2.01745,1.42214 -3.02618,3.60495 -3.02618,6.54843 0,2.72851 0.79376,4.76251 2.38125,6.10196 1.5875,1.33945 4.35736,2.25722 8.30957,2.75332 l 1.56322,0.19844 c 1.80247,0.21497 3.00136,0.5209 3.59668,0.91777 0.61184,0.38034 0.91725,0.96738 0.91725,1.76113 0,0.94257 -0.43821,1.65365 -1.31465,2.1332 -0.87643,0.47956 -2.18281,0.71934 -3.91914,0.71934 -1.91822,0 -3.81113,-0.21497 -5.67975,-0.64492 -1.85209,-0.42995 -3.66335,-1.07487 -5.43275,-1.93477 v 6.74688 c 2.06706,0.57878 4.07624,1.00872 6.02754,1.28984 1.96784,0.29765 3.87005,0.44649 5.7056,0.44649 4.33254,0 7.58972,-0.74415 9.77253,-2.23243 2.18281,-1.48827 3.27422,-3.71243 3.27422,-6.67246 0,-2.82773 -0.78497,-4.90305 -2.35593,-6.22597 -1.57097,-1.32292 -4.63073,-2.27376 -9.17825,-2.85254 l -1.56218,-0.22324 c -1.60404,-0.1819 -2.72077,-0.46302 -3.34915,-0.84336 -0.61185,-0.38034 -0.91777,-0.92605 -0.91777,-1.63711 0,-0.87644 0.40514,-1.52136 1.21542,-1.93477 0.82683,-0.42995 2.08361,-0.64492 3.77032,-0.64492 1.57096,0 3.24115,0.19844 5.01054,0.59531 1.76941,0.39687 3.60496,0.99219 5.50664,1.78594 v -6.74688 c -2.11666,-0.52916 -4.07623,-0.91777 -5.87871,-1.16582 -1.80247,-0.24804 -3.52175,-0.37207 -5.15885,-0.37207 z" />
  </g>
</svg>
