<?xml version="1.0" encoding="UTF-8" standalone="no"?>
<!-- Created with Inkscape (http://www.inkscape.org/) -->

<svg
   width="131.5992mm"
   height="131.59921mm"
   viewBox="0 0 131.5992 131.59921"
   version="1.1"
   id="svg1"
   xmlns="http://www.w3.org/2000/svg"
   xmlnsSvg="http://www.w3.org/2000/svg">
  <defs
     id="defs1" />
  <g
     id="layer1"
     transform="translate(-1543.5791,-15.875)">
    <path
       id="path2-2-56-59"
       style="fill:#ffffff;stroke-width:1"
       d="m 1609.3788,15.875 a 65.799622,65.799622 0 0 0 -65.7996,65.7996 65.799622,65.799622 0 0 0 65.7996,65.7996 65.799622,65.799622 0 0 0 65.7996,-65.7996 65.799622,65.799622 0 0 0 -65.7996,-65.7996 z m -5e-4,8.00003 c 31.8811,0 57.8006,25.91943 57.8006,57.8006 0,31.88118 -25.9192,57.79854 -57.8006,57.79854 -31.8815,0 -57.7991,-25.91706 -57.7991,-57.79854 0,-31.88147 25.9179,-57.8006 57.7991,-57.8006 z" />
    <path
       id="path2-2-56-59-9"
       style="fill:#ffffff;stroke-width:0.625834"
       d="m 1609.3788,40.494945 a 41.179667,41.179667 0 0 0 -41.1796,41.179653 41.179667,41.179667 0 0 0 41.1796,41.179652 41.179667,41.179667 0 0 0 41.1796,-41.179652 41.179667,41.179667 0 0 0 -41.1796,-41.179653 z m -3e-4,5.006694 c 19.9522,0 36.1736,16.221271 36.1736,36.173603 0,19.952328 -16.2211,36.172318 -36.1736,36.172318 -19.9526,0 -36.1727,-16.2198 -36.1727,-36.172318 0,-19.95252 16.2203,-36.173603 36.1727,-36.173603 z" />
    <path
       id="path2-2-56-59-9-1"
       style="fill:#ffffff;stroke-width:0.368559"
       d="m 1609.3788,57.423545 a 24.251061,24.251061 0 0 0 -24.251,24.251052 24.251061,24.251061 0 0 0 24.251,24.251053 24.251061,24.251061 0 0 0 24.251,-24.251053 24.251061,24.251061 0 0 0 -24.251,-24.251052 z m -2e-4,2.948485 c 11.7501,0 21.303,9.552847 21.303,21.302947 0,11.750099 -9.5528,21.302193 -21.303,21.302193 -11.7502,0 -21.3024,-9.551982 -21.3024,-21.302193 0,-11.750211 9.5523,-21.302947 21.3024,-21.302947 z" />
    <path
       id="path2-2-56-59-9-1-1"
       style="fill:#ffffff;stroke-width:0.185622"
       d="m 1609.3789,69.460707 a 12.213894,12.213894 0 0 0 -12.2139,12.213889 12.213894,12.213894 0 0 0 12.2139,12.213892 12.213894,12.213894 0 0 0 12.2138,-12.213892 12.213894,12.213894 0 0 0 -12.2138,-12.213889 z m -10e-5,1.484986 c 5.9178,0 10.7291,4.811231 10.7291,10.729095 0,5.917862 -4.8112,10.728717 -10.7291,10.728717 -5.918,0 -10.7289,-4.810799 -10.7289,-10.728717 0,-5.91792 4.811,-10.729095 10.7289,-10.729095 z" />
  </g>
</svg>
