<?xml version="1.0" encoding="UTF-8" standalone="no"?>
<!-- Created with Inkscape (http://www.inkscape.org/) -->

<svg
   width="131.5992mm"
   height="131.59921mm"
   viewBox="0 0 131.5992 131.59921"
   version="1.1"
   id="svg1"
   xmlns="http://www.w3.org/2000/svg"
   xmlnsSvg="http://www.w3.org/2000/svg">
  <defs
     id="defs1" />
  <g
     id="layer1"
     transform="translate(-652.70796,17.465858)">
    <path
       id="path2"
       style="fill:#ffffff;stroke-width:1"
       d="m 718.50755,-17.465858 a 65.799622,65.799622 0 0 0 -65.7996,65.799601 65.799622,65.799622 0 0 0 65.7996,65.799597 65.799622,65.799622 0 0 0 65.79961,-65.799597 65.799622,65.799622 0 0 0 -65.79961,-65.799601 z m -5.1e-4,8.0000276 c 31.88118,0 57.8006,25.9194284 57.8006,57.8006064 0,31.88118 -25.91912,57.798544 -57.8006,57.798544 -31.88148,0 -57.79906,-25.917068 -57.79906,-57.798544 0,-31.881474 25.91788,-57.8006064 57.79906,-57.8006064 z" />
    <path
       id="path3"
       style="fill:#ffffff;stroke-width:1"
       d="m 744.18904,7.7224645 c -0.9943,-0.00303 -2.77835,0.4792929 -6.65127,2.2453409 -6.22775,2.8398256 -17.85618,8.9987836 -26.41596,16.4620446 -2.85687,2.490886 -5.35001,5.125077 -7.50807,7.729244 l 21.64002,17.039786 c 1.94422,-2.114778 3.86415,-4.454824 5.65805,-7.034712 6.4834,-9.323953 11.33533,-21.555967 13.47774,-28.056686 2.13172,-6.4683274 1.58097,-7.2622976 1.01699,-8.0279334 -0.3085,-0.1788574 -0.62092,-0.3552677 -1.2175,-0.3570841 z M 701.21595,34.712548 c -1.77802,0.06247 -3.51609,0.87966 -4.7072,2.394169 l -0.16175,0.205156 c -1.79707,2.284988 -1.7528,5.401902 -0.0951,7.61969 l 19.61585,15.445569 c 2.55667,1.122483 5.62636,0.436795 7.43624,-1.864486 l 0.16175,-0.205156 c 1.40803,-1.790327 1.68056,-4.091402 0.93999,-6.07198 L 702.21796,34.764741 c -0.33346,-0.04191 -0.66802,-0.06393 -1.00201,-0.05219 z m -5.44618,11.543998 c -0.27602,0.599674 -0.52955,1.17935 -0.7338,1.712041 -2.03553,5.308506 -0.61604,7.157763 0.61702,8.551416 1.23303,1.393649 2.27979,2.331504 3.32641,3.269051 l 0.0997,0.0894 c 1.04629,0.93792 2.09267,1.875762 3.6127,2.949174 1.52003,1.073412 3.51363,2.282409 8.56795,-0.320911 0.88174,-0.454148 1.88158,-1.065541 2.92592,-1.749247 z"
       transform="translate(9.8316014,-0.5838821)" />
    <path
       id="path4"
       style="fill:#ffffff;stroke-width:1"
       d="m 698.61886,58.434676 c -2.50973,-0.04484 -4.84905,0.76637 -6.72466,2.104264 -2.50081,1.783864 -4.177,4.504695 -6.82956,6.855396 -2.65252,2.350701 -6.28149,4.331006 -9.17566,4.614189 -2.8942,0.283179 -5.05326,-1.130939 -7.21248,-2.545065 5.21078,8.349968 10.42132,16.699912 17.72708,19.659265 7.30576,2.959354 16.70642,0.528164 21.95577,-3.556888 5.24931,-4.085053 6.34758,-9.823846 6.22804,-13.557829 -0.11954,-3.733984 -1.45676,-5.46323 -3.91656,-7.620207 -2.45977,-2.156977 -6.04207,-4.741502 -9.49606,-5.61051 -0.86349,-0.217253 -1.71937,-0.32767 -2.55591,-0.342615 z m -0.76482,4.216797 a 1.0821282,3.0586905 0 0 1 1.08211,3.058728 1.0821282,3.0586905 0 0 1 -1.08211,3.058211 1.0821282,3.0586905 0 0 1 -1.0821,-3.058211 1.0821282,3.0586905 0 0 1 1.0821,-3.058728 z m -4.92993,2.128552 c 0.0463,-0.0043 0.0918,-0.0035 0.13643,0.0021 0.45873,0.05769 0.82257,0.635976 1.03043,1.626258 0.36952,1.760499 0.24554,4.82401 -0.57309,7.394897 -0.81867,2.570887 -2.33185,4.648776 -5.32733,4.97334 -2.99548,0.324564 -7.47295,-1.104368 -10.61795,-2.474784 -3.14504,-1.37042 -4.95786,-2.682654 -4.63538,-2.930571 0.32248,-0.247917 2.78012,0.568315 5.05964,1.189075 2.27952,0.620757 4.381,1.046095 6.10402,0.889351 1.72302,-0.156744 3.06739,-0.895269 4.32015,-2.94504 1.25276,-2.04977 2.41374,-5.410292 3.42563,-6.862113 0.38736,-0.555778 0.75306,-0.832156 1.07745,-0.86248 z m 11.80497,1.172538 c 0.45097,0.03936 0.79752,0.575195 0.9648,1.469678 0.29737,1.590191 0.0291,4.313417 -1.06971,7.00164 -1.09883,2.688222 -3.0282,5.341058 -5.71231,6.762378 -2.68411,1.42132 -6.12249,1.610956 -10.56473,1.176672 -4.44222,-0.434283 -9.88808,-1.492601 -9.61543,-1.697054 0.27264,-0.204452 6.26376,0.444848 10.1756,0.38654 3.91185,-0.05831 5.7445,-0.824105 7.27811,-1.950785 1.53361,-1.126681 2.76789,-2.613766 3.96565,-5.037936 1.19777,-2.424166 2.35898,-5.78494 3.37086,-7.236767 0.4427,-0.635176 0.8564,-0.904975 1.20716,-0.874366 z m 6.61716,9.970968 c 0.0204,0.0024 0.0391,0.0082 0.0553,0.01757 0.51921,0.300583 -1.14634,4.238123 -3.90726,7.241419 -2.7609,3.003295 -6.61711,5.072137 -10.80089,5.250325 -4.18376,0.17819 -8.69495,-1.534216 -11.30732,-2.621545 -2.61238,-1.087333 -3.32596,-1.549978 -3.13469,-1.70739 0.19126,-0.157416 1.28768,-0.0098 2.83704,0.433566 1.54934,0.443369 3.55174,1.182697 5.81463,1.614888 2.26289,0.432193 4.7855,0.557195 7.25744,-0.133842 2.47191,-0.69104 4.89295,-2.19807 7.45535,-4.619873 2.48236,-2.346118 5.09735,-5.550403 5.7304,-5.475118 z" />
  </g>
</svg>
