<?xml version="1.0" encoding="UTF-8" standalone="no"?>
<!-- Created with Inkscape (http://www.inkscape.org/) -->

<svg
   width="131.5992mm"
   height="131.59921mm"
   viewBox="0 0 131.5992 131.59921"
   version="1.1"
   id="svg1"
   xmlns="http://www.w3.org/2000/svg"
   xmlnsSvg="http://www.w3.org/2000/svg">
  <defs
     id="defs1" />
  <g
     id="layer1"
     transform="translate(-845.60836,109.5375)">
    <path
       id="path2-2"
       style="fill:#ffffff;stroke-width:1"
       d="m 911.40793,-109.5375 a 65.799622,65.799622 0 0 0 -65.7996,65.799601 65.799622,65.799622 0 0 0 65.7996,65.799601 65.799622,65.799622 0 0 0 65.79961,-65.799601 65.799622,65.799622 0 0 0 -65.79961,-65.799601 z m -5.1e-4,8.00003 c 31.88115,0 57.8006,25.919458 57.8006,57.800605 0,31.881147 -25.91915,57.798539 -57.8006,57.798539 -31.88145,0 -57.79906,-25.917096 -57.79906,-57.798539 0,-31.881443 25.91791,-57.800605 57.79906,-57.800605 z m 23.91998,13.377477 c -1.71695,0 -3.43396,0.657909 -4.74958,1.973522 l -1.66449,1.664498 c 0.10526,0.05434 0.20641,0.126837 0.29765,0.218075 l 5.47564,5.475635 c 0.38826,0.388265 0.4477,0.95376 0.13332,1.268139 l -0.76429,0.764295 c -0.31438,0.314379 -0.87988,0.254939 -1.26814,-0.133325 l -5.47564,-5.475635 c -0.0912,-0.09124 -0.16373,-0.19239 -0.21807,-0.297656 l -5.80068,5.800679 c 0.10527,0.05434 0.20642,0.126837 0.29766,0.218075 l 3.41012,3.410127 c 0.38827,0.388265 0.44822,0.954277 0.13385,1.268657 l -0.35864,0.358117 c -0.31438,0.31438 -0.87987,0.25494 -1.26814,-0.133325 l -3.41064,-3.410128 c -0.0912,-0.09124 -0.16374,-0.192389 -0.21808,-0.297656 l -5.80068,5.80068 c 0.10527,0.05434 0.20642,0.126836 0.29766,0.218074 l 3.41064,3.410128 c 0.38827,0.388265 0.44771,0.95376 0.13333,1.26814 l -0.35864,0.358634 c -0.31438,0.31438 -0.87987,0.25494 -1.26814,-0.133325 l -3.41064,-3.410128 c -0.0913,-0.09131 -0.1632,-0.192814 -0.21756,-0.298173 l -5.80119,5.801196 c 0.10538,0.05436 0.20685,0.126236 0.29817,0.217558 l 3.41013,3.410645 c 0.38826,0.388265 0.4477,0.95376 0.13332,1.268139 l -0.35863,0.358635 c -0.31438,0.314379 -0.87988,0.25494 -1.26814,-0.133325 l -3.41013,-3.410645 c -0.0912,-0.09124 -0.16373,-0.192396 -0.21807,-0.297656 l -5.80068,5.800679 c 0.10523,0.05433 0.20644,0.126865 0.29765,0.218075 l 5.47564,5.475635 c 0.38826,0.388265 0.4477,0.95376 0.13332,1.268139 l -0.76429,0.764295 c -0.31439,0.314386 -0.88039,0.254939 -1.26866,-0.133325 l -5.47512,-5.475635 c -0.0913,-0.09132 -0.16371,-0.192283 -0.21807,-0.297656 l -5.80068,5.800679 c 0.10523,0.05433 0.20645,0.126865 0.29766,0.218075 l 3.41012,3.410644 c 0.38827,0.388265 0.44771,0.95376 0.13333,1.26814 l -0.35812,0.358634 c -0.31439,0.314387 -0.88039,0.25494 -1.26866,-0.133325 l -3.41012,-3.410644 c -0.0912,-0.09124 -0.16373,-0.192397 -0.21808,-0.297657 l -5.80068,5.80068 c 0.10527,0.05434 0.20642,0.126836 0.29766,0.218074 l 3.41064,3.410128 c 0.38827,0.388265 0.44771,0.954277 0.13333,1.268657 l -0.35864,0.358117 c -0.31438,0.31438 -0.87987,0.25494 -1.26814,-0.133325 l -3.41064,-3.410128 c -0.0912,-0.09124 -0.16373,-0.192396 -0.21807,-0.297656 l -5.80068,5.80068 c 0.10538,0.05436 0.20633,0.126751 0.29765,0.218074 l 3.41065,3.410128 c 0.38826,0.388265 0.4477,0.95376 0.13332,1.26814 l -0.35863,0.358634 c -0.31438,0.314379 -0.87988,0.25494 -1.26814,-0.133325 l -3.41065,-3.410128 c -0.0913,-0.09132 -0.1632,-0.192793 -0.21755,-0.298173 l -5.8012,5.80068 c 0.10543,0.05436 0.2068,0.126702 0.29817,0.218074 l 5.47564,5.475635 c 0.38826,0.388265 0.4477,0.954277 0.13332,1.268656 l -0.76429,0.763778 c -0.31438,0.314379 -0.88039,0.25494 -1.26866,-0.133325 l -5.47563,-5.475118 c -0.0914,-0.09139 -0.16371,-0.192723 -0.21808,-0.298173 l -0.30799,0.307991 c -2.63116,2.631163 -2.63123,6.867928 0,9.499162 l 11.914,11.9140015 c 2.63124,2.63123359 6.868,2.63116288 9.49916,0 l 1.04697,-1.0469646 -0.33331,-0.3333129 c -0.38827,-0.3882649 -0.44771,-0.9542771 -0.13333,-1.2686565 l 0.76429,-0.7642944 c 0.31438,-0.3143793 0.8804,-0.2549467 1.26866,0.1333252 l 0.33331,0.333313 5.72058,-5.7205813 -0.33331,-0.333313 c -0.38828,-0.388265 -0.4477,-0.954277 -0.13332,-1.268656 l 0.35863,-0.358635 c 0.31438,-0.314379 0.87987,-0.254932 1.26814,0.133326 l 0.33383,0.333829 5.7211,-5.721097 -0.33383,-0.33383 c -0.38827,-0.388265 -0.44822,-0.953251 -0.13384,-1.267623 l 0.35863,-0.358635 c 0.31438,-0.314379 0.88039,-0.254946 1.26866,0.133326 l 0.33331,0.333313 5.7211,-5.721098 -0.33331,-0.333313 c -0.38828,-0.388272 -0.44771,-0.95376 -0.13333,-1.26814 l 0.35812,-0.358634 c 0.31438,-0.31438 0.88038,-0.254947 1.26865,0.133325 l 0.33332,0.333313 5.72058,-5.720581 -0.33331,-0.333313 c -0.38826,-0.388272 -0.44771,-0.954277 -0.13333,-1.268657 l 0.76429,-0.764294 c 0.31438,-0.314379 0.8804,-0.25494 1.26866,0.133325 l 0.33331,0.333313 5.72058,-5.720581 -0.33331,-0.333313 c -0.38826,-0.388272 -0.4477,-0.954277 -0.13332,-1.268656 l 0.35863,-0.358635 c 0.31438,-0.314379 0.87987,-0.25443 1.26814,0.133842 l 0.33331,0.333313 5.72162,-5.721098 -0.33383,-0.333829 c -0.38827,-0.388265 -0.44771,-0.953761 -0.13333,-1.26814 l 0.35864,-0.358634 c 0.31438,-0.31438 0.87987,-0.254423 1.26814,0.133842 l 0.33331,0.333313 5.7211,-5.721098 -0.33331,-0.333313 c -0.38828,-0.388272 -0.44771,-0.953761 -0.13333,-1.26814 l 0.35812,-0.358634 c 0.31438,-0.31438 0.88038,-0.254947 1.26865,0.133325 l 0.33332,0.333313 5.7211,-5.721098 -0.33332,-0.333313 c -0.38827,-0.388272 -0.4477,-0.95376 -0.13332,-1.26814 l 0.76377,-0.764294 c 0.31438,-0.314379 0.88039,-0.254947 1.26866,0.133325 l 0.33331,0.333313 0.84595,-0.845426 c 2.63117,-2.63117 2.63116,-6.867999 0,-9.499162 l -11.914,-11.914002 c -1.31555,-1.315549 -3.03263,-1.973522 -4.74959,-1.973522 z" />
  </g>
</svg>
