<?xml version="1.0" encoding="UTF-8" standalone="no"?>
<!-- Created with Inkscape (http://www.inkscape.org/) -->

<svg
   width="131.5992mm"
   height="131.59921mm"
   viewBox="0 0 131.5992 131.59921"
   version="1.1"
   id="svg1"
   xmlns="http://www.w3.org/2000/svg"
   xmlnsSvg="http://www.w3.org/2000/svg">
  <defs
     id="defs1" />
  <g
     id="layer1"
     transform="translate(-1113.1021,-321.73333)">
    <path
       id="path2-2-56-2"
       style="fill:#ffffff;stroke-width:1"
       d="m 1178.9017,321.73333 a 65.799622,65.799622 0 0 0 -65.7996,65.7996 65.799622,65.799622 0 0 0 65.7996,65.79961 65.799622,65.799622 0 0 0 65.7996,-65.79961 65.799622,65.799622 0 0 0 -65.7996,-65.7996 z m -5e-4,8.00003 c 31.8811,0 57.8006,25.91947 57.8006,57.80061 0,31.88115 -25.9192,57.79854 -57.8006,57.79854 -31.8815,0 -57.7991,-25.91709 -57.7991,-57.79854 0,-31.88144 25.9179,-57.80061 57.7991,-57.80061 z m -9.538,13.116 -0.027,0.004 0.057,0.002 z m -0.027,0.004 h -5e-4 c -0.08,0.0117 -0.1343,0.0472 -0.2259,0.10749 -0.092,0.0604 -0.2129,0.15044 -0.3829,0.28732 -0.3401,0.27376 -0.8731,0.73134 -1.7187,1.48828 -2.2551,2.01851 -6.738,6.15984 -9.2832,10.06037 -2.5179,3.85869 -3.1111,7.45908 -3.6819,11.02723 -3.6125,0.067 -7.2581,0.14962 -11.4298,2.10375 -4.2179,1.97564 -8.9461,5.83805 -11.2598,7.78919 -1.1567,0.97556 -1.7087,1.47059 -1.9684,1.73994 -0.1299,0.13468 -0.1905,0.19908 -0.2206,0.30283 -0.015,0.0519 -9e-4,0.13898 0.041,0.18345 0.042,0.0445 0.075,0.0517 0.088,0.0568 l 0.022,0.008 0.023,0.002 c 5.4451,0.3159 10.8975,0.6403 14.6684,-0.51366 3.7707,-1.15395 5.8032,-3.7892 7.2223,-5.93762 1.4194,-2.14844 2.2482,-3.84265 2.6603,-4.68551 l 0.2831,-0.57619 c 0.012,0.0178 0.01,0.0321 0.023,0.0512 0.096,0.13891 0.2271,0.30743 0.3886,0.51522 0.323,0.41555 0.768,0.98712 1.2774,1.75803 1.0188,1.54183 2.2958,3.88127 3.3554,7.3458 1.0597,3.46456 1.9036,8.06647 2.7637,12.51913 0.8601,4.45269 1.7344,8.75561 2.8747,11.64891 1.1402,2.89326 2.5426,4.37879 3.9026,4.7656 0.68,0.19341 1.3468,0.10282 1.9296,-0.2248 0.5828,-0.32762 1.0839,-0.88642 1.465,-1.62109 1.5248,-2.93867 1.1854,-8.69722 -1.1389,-15.0058 -2.3243,-6.30854 -6.6447,-13.14202 -10.2712,-17.25786 -1.4631,-1.66052 -2.8111,-2.8762 -3.8985,-3.70107 -0.939,-0.71219 -1.5564,-1.00933 -2.0355,-1.1777 l 0.2971,-0.0956 c 0.8921,-0.29038 2.6861,-0.87541 5.0116,-1.98076 2.3255,-1.10536 5.2178,-2.74945 6.8869,-6.32209 1.6692,-3.57268 2.1091,-9.01541 2.5565,-14.45132 v -0.0393 l -0.014,-0.0331 c 9e-4,0.002 3e-4,-0.0182 -0.033,-0.0646 -0.017,-0.0232 -0.048,-0.0515 -0.084,-0.0641 -0.035,-0.0124 -0.067,-0.0117 -0.094,-0.008 z m 24.8682,46.01683 c -1.9752,0 -3.5656,1.59005 -3.5656,3.56516 v 5.28598 c 0,0.71391 0.2129,1.37424 0.5715,1.93063 h -3.9868 c -1.9751,0 -3.5652,1.59004 -3.5652,3.56516 v 5.2865 c 0,0.55723 0.13,1.08141 0.3561,1.55029 h -3.7719 c -1.9751,0 -3.5652,1.59004 -3.5652,3.56516 v 5.2865 c 0,0.55088 0.1271,1.06944 0.3483,1.53427 h -3.7641 c -1.9751,0 -3.5651,1.59005 -3.5651,3.56516 v 5.2865 c 0,1.97512 1.59,3.56515 3.5651,3.56515 h 30.1196 c 1.9751,0 3.5652,-1.59003 3.5652,-3.56515 v -5.2865 c 0,-0.55072 -0.1272,-1.06956 -0.3483,-1.53428 h 3.7641 c 1.9751,0 3.5652,-1.59004 3.5652,-3.56515 v -5.2865 c 0,-0.55711 -0.1301,-1.0815 -0.3561,-1.5503 h 3.7719 c 1.9751,0 3.5651,-1.59003 3.5651,-3.56515 v -5.2865 c 0,-0.71312 -0.2095,-1.37462 -0.5674,-1.93063 h 3.9832 c 1.9752,0 3.5652,-1.59004 3.5652,-3.56516 v -5.28598 c 0,-1.97511 -1.5901,-3.56516 -3.5652,-3.56516 z m 0,2.05982 h 30.1196 c 0.8341,0 1.5038,0.67026 1.5038,1.50534 v 5.28546 c 0,0.83508 -0.6697,1.50534 -1.5038,1.50534 h -30.1196 c -0.8341,0 -1.5048,-0.67122 -1.5048,-1.50534 v -5.28546 c 0,-0.83412 0.6707,-1.50534 1.5048,-1.50534 z m -6.9809,10.78177 h 30.1196 c 0.8341,0 1.5037,0.67025 1.5037,1.50534 v 5.28546 c 0,0.83508 -0.6696,1.50534 -1.5037,1.50534 h -30.1196 c -0.8341,0 -1.5049,-0.67122 -1.5049,-1.50534 v -5.28546 c 0,-0.83412 0.6708,-1.50534 1.5049,-1.50534 z m -6.981,10.40195 h 30.1196 c 0.8341,0 1.5038,0.67025 1.5038,1.50534 v 5.28546 c 0,0.83508 -0.6697,1.50534 -1.5038,1.50534 h -30.1196 c -0.8342,0 -1.5048,-0.67122 -1.5048,-1.50534 v -5.28546 c 0,-0.83412 0.6706,-1.50534 1.5048,-1.50534 z m -6.9805,10.38593 h 30.1191 c 0.8341,0 1.5038,0.67026 1.5038,1.50534 v 5.28546 c 0,0.83509 -0.6697,1.50534 -1.5038,1.50534 h -30.1191 c -0.8342,0 -1.5053,-0.67122 -1.5053,-1.50534 V 424.005 c 0,-0.83412 0.6711,-1.50534 1.5053,-1.50534 z" />
  </g>
</svg>
