<?xml version="1.0" encoding="UTF-8" standalone="no"?>
<!-- Created with Inkscape (http://www.inkscape.org/) -->

<svg
   width="131.5992mm"
   height="131.59921mm"
   viewBox="0 0 131.5992 131.59921"
   version="1.1"
   id="svg1"
   xmlns="http://www.w3.org/2000/svg"
   xmlnsSvg="http://www.w3.org/2000/svg">
  <defs
     id="defs1" />
  <g
     id="layer1"
     transform="translate(-1332.1772,98.68958)">
    <path
       id="path2-2-56-53"
       style="fill:#ffffff;stroke-width:1"
       d="m 1397.9767,-98.689583 a 65.799622,65.799622 0 0 0 -65.7996,65.799601 65.799622,65.799622 0 0 0 65.7996,65.799601 65.799622,65.799622 0 0 0 65.7996,-65.799601 65.799622,65.799622 0 0 0 -65.7996,-65.799601 z m -5e-4,8.000028 c 31.8811,0 57.8006,25.919468 57.8006,57.800606 0,31.8811486 -25.9192,57.79854 -57.8006,57.79854 -31.8815,0 -57.7991,-25.9170914 -57.7991,-57.79854 0,-31.881438 25.9179,-57.800606 57.7991,-57.800606 z m 4.1759,6.848678 c -0.523,-0.0061 -1.0463,-0.0011 -1.5689,0.01344 h -5e-4 c -4.5742,0.168924 -9.1211,0.91521 -13.5469,2.070157 -5.2092,1.37132 -10.276,3.848065 -13.9361,7.885824 -3.3845,3.724305 -5.883,8.400037 -6.5309,13.429154 -0.167,1.508775 -0.1848,3.059875 0.1695,4.543909 2.096,-0.119803 4.2757,0.296385 5.9955,1.555461 2.4598,1.67611 3.8458,4.688724 3.6592,7.643461 v 3.089734 c 1.6997,1.237 3.4863,2.344977 5.302,3.401859 0.031,-2.655009 -0.064,-5.314957 0.049,-7.966955 0.2254,-2.600245 1.7624,-4.986657 3.9331,-6.405294 -1.7267,-5.106683 1.0681,-11.233131 5.9908,-13.380579 1.853,-0.833704 3.8707,-1.184588 5.8513,-1.152901 3.0851,0.04589 6.2882,1.117221 8.6858,3.167765 1.1628,0.963584 2.3021,2.369424 3.1037,3.622002 1.6912,2.674396 2.7694,5.712051 3.2871,8.827368 1.8442,1.762821 2.7768,4.348131 2.619,6.881233 v 27.205058 c 1.603,-0.772192 3.2281,-1.566199 4.7734,-2.478918 v -25.411886 c 0,-5.054743 4.0724,-9.126574 9.1271,-9.126574 h 0.4557 c -0.118,-0.704161 -0.2413,-1.407386 -0.3819,-2.106849 -1.3725,-6.758143 -4.2271,-13.422825 -9.2097,-18.311027 -3.5341,-3.527611 -8.2021,-5.873907 -13.1408,-6.609415 -1.5493,-0.250586 -3.1174,-0.367816 -4.6866,-0.386023 z m -50.6821,30.412614 c -3.3943,0 -6.1268,2.732447 -6.1268,6.126757 v 28.823047 c 0,3.394311 2.7325,6.127275 6.1268,6.127275 h 16.3251 c 3.3943,0 6.1272,-2.732964 6.1272,-6.127275 v -28.823047 c 0,-3.39431 -2.7329,-6.126757 -6.1272,-6.126757 z m 38.8229,0 c -3.3943,0 -6.1273,2.732447 -6.1273,6.126757 v 28.823047 c 0,3.394311 2.733,6.127275 6.1273,6.127275 h 16.3251 c 3.3943,0 6.1268,-2.732964 6.1268,-6.127275 v -28.823047 c 0,-3.39431 -2.7325,-6.126757 -6.1268,-6.126757 z m 38.8225,0 c -3.3944,0 -6.1268,2.732447 -6.1268,6.126757 v 28.823047 c 0,3.394311 2.7324,6.127275 6.1268,6.127275 h 16.3256 c 3.3943,0 6.1267,-2.732964 6.1267,-6.127275 v -28.823047 c 0,-3.39431 -2.7324,-6.126757 -6.1267,-6.126757 z m -41.8621,43.050602 c 0.022,0.245751 0.045,0.4916714 0.067,0.7374226 h 5e-4 c 0.2176,3.0836819 1.2274,6.3211051 3.6799,8.3617635 2.2456,1.87238577 5.2572,2.6139358 8.1349,2.5962239 1.8206,-0.016876 3.9158,-0.70835674 4.6912,-2.5042399 0.8304,-2.0214366 0.5436,-4.267788 0.8139,-6.3934082 0.077,-0.7746817 0.2328,-1.5373461 0.3839,-2.300118 -5.1141,-0.015251 -10.2294,0.030296 -15.3427,-0.023254 -0.8273,-0.055518 -1.6257,-0.2824199 -2.4283,-0.4743899 z m 9.0217,16.0470824 a 8.0887127,8.0887127 0 0 0 -8.0884,8.0889116 8.0887127,8.0887127 0 0 0 8.0884,8.088396 8.0887127,8.0887127 0 0 0 8.0889,-8.088396 8.0887127,8.0887127 0 0 0 -8.0889,-8.0889116 z" />
  </g>
</svg>
