<?xml version="1.0" encoding="UTF-8" standalone="no"?>
<!-- Created with Inkscape (http://www.inkscape.org/) -->

<svg
   width="131.59926mm"
   height="131.59921mm"
   viewBox="0 0 131.59926 131.59921"
   version="1.1"
   id="svg1"
   xmlns="http://www.w3.org/2000/svg"
   xmlnsSvg="http://www.w3.org/2000/svg">
  <defs
     id="defs1" />
  <g
     id="layer1"
     transform="translate(-1057.4733,235.00684)">
    <path
       id="path2-2-56-4-6"
       style="fill:#ffffff;stroke-width:1"
       d="m 1123.273,-235.00684 c -36.34,-5e-5 -65.7996,29.45951 -65.7996,65.7996 0,36.34007 29.4596,65.79964 65.7996,65.7996 36.3401,-1e-5 65.7996,-29.45957 65.7996,-65.7996 0,-36.34005 -29.4595,-65.79959 -65.7996,-65.7996 z m -5e-4,8.00002 c 31.8812,0 57.8006,25.91953 57.8006,57.80061 0,13.97151 -4.979,26.79685 -13.255,36.79827 l -81.3438,-81.34335 c 10.0015,-8.27615 22.8267,-13.25553 36.7982,-13.25553 z m -46.1605,23.05183 80.9093,80.90875 c -9.6778,7.30171 -21.7133,11.63857 -34.7488,11.63857 -31.8811,0 -57.799,-25.91715 -57.799,-57.79854 0,-13.03547 4.3367,-25.07096 11.6385,-34.74878 z m 25.9571,3.15226 25.3597,25.36021 c 0.6896,-5.15394 4.5939,-9.26698 9.647,-10.25261 v -12.64418 c 0,-1.36508 -1.0993,-2.46342 -2.4645,-2.46342 z m -24.028,2.42207 c -2e-4,0.0141 0,0.0272 0,0.0413 v 37.24733 c 0,1.36507 1.0988,2.46342 2.4639,2.46342 h 13.6204 v -0.006 h 23.6652 z m 61.5239,17.44752 c -4.4902,0 -8.1096,3.61897 -8.1096,8.10906 v 1.40819 l 31.6782,31.67765 c 0.077,-0.45114 0.1385,-0.90858 0.1385,-1.38235 v -31.70349 c 0,-4.49009 -3.6195,-8.10906 -8.1096,-8.10906 z m -42.5871,24.64087 c -3.9317,3.70706 -7.2001,7.08808 -7.2605,8.893 -0.077,2.31673 5.0678,2.06655 8.9116,1.973 3.8436,-0.0935 6.3847,-0.0302 8.9271,0.032 2.5423,-0.0622 5.0851,-0.12558 8.9287,-0.032 3.8439,0.0935 8.9877,0.34373 8.91,-1.973 -0.06,-1.8049 -3.3284,-5.186 -7.26,-8.893 z m 34.4775,11.32644 v 3.84524 c 0,4.49012 3.6194,8.10907 8.1096,8.10907 h 3.8447 z" />
  </g>
</svg>
