<?xml version="1.0" encoding="UTF-8" standalone="no"?>
<!-- Created with Inkscape (http://www.inkscape.org/) -->

<svg
   width="131.5992mm"
   height="131.59921mm"
   viewBox="0 0 131.5992 131.59921"
   version="1.1"
   id="svg1"
   xmlns="http://www.w3.org/2000/svg"
   xmlnsSvg="http://www.w3.org/2000/svg">
  <defs
     id="defs1" />
  <g
     id="layer1"
     transform="translate(-1110.9854,-138.64166)">
    <path
       id="path2-2-56-6"
       style="fill:#ffffff;stroke-width:1"
       d="m 1176.785,138.64167 a 65.799622,65.799622 0 0 0 -65.7996,65.7996 65.799622,65.799622 0 0 0 65.7996,65.7996 65.799622,65.799622 0 0 0 65.7996,-65.7996 65.799622,65.799622 0 0 0 -65.7996,-65.7996 z m -5e-4,8.00003 c 31.8812,0 57.8006,25.91946 57.8006,57.8006 0,31.88115 -25.9191,57.79854 -57.8006,57.79854 -31.8815,0 -57.7991,-25.91709 -57.7991,-57.79854 0,-31.88144 25.9179,-57.8006 57.7991,-57.8006 z m -35.6113,15.57682 a 35.219467,11.739822 52.43106 0 0 -2.851,0.90227 35.219467,11.739822 52.43106 0 0 2.0216,18.77043 35.219467,11.739822 0.58055011 0 0 -15.2094,9.48159 35.219467,11.739822 0.58055011 0 0 15.6063,9.91981 11.739822,35.219467 37.43106 0 0 -1.7952,18.40456 11.739822,35.219467 37.43106 0 0 21.5103,-10.39006 35.219467,11.739822 52.43106 0 0 20.8142,9.64489 35.219467,11.739822 52.43106 0 0 -1.341,-17.29559 35.219467,11.739822 0.58055011 0 0 15.6409,-9.56995 35.219467,11.739822 0.58055011 0 0 -15.5959,-9.91774 11.739822,35.219467 37.43106 0 0 1.7849,-18.40612 11.739822,35.219467 37.43106 0 0 -2.8531,-0.89503 11.739822,35.219467 37.43106 0 0 -18.4924,11.12542 35.219467,11.739822 52.43106 0 0 -19.2402,-11.77448 z m 0.098,1.96319 c 3.5835,-0.071 10.3561,3.94914 17.7101,11.21844 a 11.739822,35.219467 37.43106 0 0 -4.2944,4.71134 35.219467,11.739822 0.58055011 0 0 -12.3015,1.38337 c -4.103,-8.4988 -5.1024,-15.05159 -2.8443,-16.78863 0.4392,-0.33776 1.0226,-0.5105 1.7301,-0.52452 z m 37.5409,0.64751 c 0.7075,0.0122 1.2907,0.18371 1.7306,0.52038 2.2263,1.704 1.3171,8.07586 -2.6029,16.38814 a 35.219467,11.739822 0.58055011 0 0 -11.7946,-1.5167 35.219467,11.739822 52.43106 0 0 -4.3362,-4.79971 c 7.0726,-6.86586 13.5304,-10.65213 17.0031,-10.59211 z m -18.4221,11.99565 c 0.9945,1.02991 1.9948,2.11049 2.9982,3.25406 a 35.219467,11.739822 0.58055011 0 0 -2.9171,-0.0884 35.219467,11.739822 0.58055011 0 0 -3.0577,0.0305 c 0.9964,-1.11701 1.9914,-2.19297 2.9766,-3.19618 z m 0.061,5.16506 c 1.6135,0.0163 3.1739,0.0823 4.7078,0.16898 0.788,0.94989 1.575,1.92178 2.3569,2.93832 1.7459,2.26962 3.307,4.51202 4.7232,6.70605 -1.2621,1.91867 -2.6433,3.87404 -4.1532,5.84667 -1.0021,1.30922 -2.0122,2.54323 -3.0231,3.74189 -1.5668,0.0583 -3.1607,0.0942 -4.809,0.0775 -1.5877,-0.0161 -3.1241,-0.0801 -4.6348,-0.16433 -1.1841,-1.37495 -2.3685,-2.80533 -3.5425,-4.33152 -1.3372,-1.73836 -2.5656,-3.46159 -3.7098,-5.16041 1.2896,-1.9687 2.7009,-3.97581 4.2519,-6.00222 1.0015,-1.30831 2.0109,-2.5455 3.021,-3.74344 1.5676,-0.0584 3.1623,-0.0942 4.8116,-0.0775 z m -7.5106,0.20928 a 11.739822,35.219467 37.43106 0 0 -1.911,2.39521 11.739822,35.219467 37.43106 0 0 -3.8473,5.4069 c -1.465,-2.28631 -2.7685,-4.51673 -3.8706,-6.63835 2.9196,-0.53287 6.1451,-0.9371 9.6289,-1.16376 z m 14.9298,0.14367 c 3.2968,0.27864 6.3671,0.70942 9.1571,1.25522 -1.0327,2.03183 -2.2408,4.16097 -3.6096,6.35258 a 35.219467,11.739822 52.43106 0 0 -4.3166,-6.0725 35.219467,11.739822 52.43106 0 0 -1.2309,-1.5353 z m -26.6077,1.41748 a 35.219467,11.739822 52.43106 0 0 4.7119,8.06566 11.739822,35.219467 37.43106 0 0 -4.3258,7.60832 c -8.9623,-2.03031 -14.5418,-5.23788 -14.5134,-8.04137 0.028,-2.74667 5.4431,-5.77284 14.1273,-7.63261 z m 37.8122,0.26872 c 8.9514,2.03055 14.5226,5.23562 14.4942,8.03723 -0.028,2.78773 -5.6039,5.86354 -14.5169,7.71529 a 35.219467,11.739822 52.43106 0 0 -4.4339,-7.9623 11.739822,35.219467 37.43106 0 0 4.4566,-7.79022 z m -18.7229,0.41393 a 7.2867985,7.2867985 0 0 0 -7.2864,7.28689 7.2867985,7.2867985 0 0 0 7.2864,7.28689 7.2867985,7.2867985 0 0 0 7.2869,-7.28689 7.2867985,7.2867985 0 0 0 -7.2869,-7.28689 z m -13.1491,9.1984 a 35.219467,11.739822 52.43106 0 0 3.2882,4.55269 35.219467,11.739822 52.43106 0 0 2.343,2.92231 c -3.2969,-0.27868 -6.367,-0.7094 -9.157,-1.25522 1.0121,-1.99087 2.1909,-4.07473 3.5258,-6.21978 z m 26.2119,0.0103 c 1.3851,2.26178 2.571,4.44059 3.5905,6.51794 -2.8159,0.49783 -5.914,0.87388 -9.2419,1.09038 a 11.739822,35.219467 37.43106 0 0 1.911,-2.39469 11.739822,35.219467 37.43106 0 0 3.7404,-5.21363 z m -30.6498,8.06979 a 35.219467,11.739822 0.58055011 0 0 11.8974,1.52394 35.219467,11.739822 52.43106 0 0 4.3548,4.67723 c -8.5624,8.34593 -16.2446,12.18445 -18.8562,10.18542 -2.2265,-1.70413 -1.3165,-8.07496 2.604,-16.38659 z m 35.1281,0.32401 c 3.5184,7.77786 4.2834,13.68671 2.1575,15.32206 -2.5343,1.9495 -9.8779,-1.6234 -18.171,-9.47384 a 11.739822,35.219467 37.43106 0 0 4.1377,-4.54598 35.219467,11.739822 0.58055011 0 0 11.8758,-1.30224 z m -20.4314,1.33893 a 35.219467,11.739822 0.58055011 0 0 2.7715,0.0842 35.219467,11.739822 0.58055011 0 0 3.0628,-0.0305 c -0.9592,1.0752 -1.913,2.08837 -2.8618,3.05821 -0.9831,-0.97763 -1.9756,-2.02005 -2.9725,-3.11196 z m 48.5542,0.94465 c -4.5795,0 -8.0908,1.01773 -10.5332,3.05304 -2.4424,2.03533 -3.6634,4.94378 -3.6634,8.72609 0,3.01905 0.8736,5.41918 2.6206,7.20007 1.7639,1.78091 4.5454,3.07866 8.3447,3.89279 l 3.7909,0.83922 c 2.3067,0.50883 3.8417,1.08561 4.6049,1.73013 0.7802,0.64452 1.1705,1.56037 1.1705,2.74764 0,1.32296 -0.5684,2.34068 -1.7048,3.05304 -1.1364,0.71236 -2.7732,1.06867 -4.9103,1.06867 -2.1032,0 -4.2912,-0.32235 -6.5639,-0.96687 -2.2559,-0.66148 -4.5964,-1.63688 -7.0218,-2.92592 v 8.26875 c 2.4254,0.89893 4.8506,1.57707 7.276,2.03502 2.4254,0.45795 4.8428,0.68729 7.2513,0.68729 5.1051,0 8.8961,-1.01772 11.3724,-3.05304 2.4933,-2.05228 3.7398,-5.17336 3.7398,-9.36274 0,-3.18866 -0.8908,-5.64782 -2.6717,-7.37784 -1.7809,-1.73002 -4.7828,-3.0189 -9.0061,-3.86695 l -4.1724,-0.83974 c -1.9844,-0.40706 -3.3585,-0.89033 -4.1217,-1.45004 -0.7463,-0.57667 -1.1193,-1.37392 -1.1193,-2.39159 0,-1.35687 0.5595,-2.35788 1.679,-3.0024 1.1194,-0.64451 2.8497,-0.96635 5.1903,-0.96635 1.764,0 3.638,0.2372 5.6224,0.71211 1.9845,0.4749 4.0199,1.17864 6.1061,2.1115 v -8.03931 c -2.3576,-0.62756 -4.6391,-1.0941 -6.844,-1.3994 -2.2049,-0.32224 -4.3501,-0.48317 -6.4363,-0.48317 z m -53.2241,0.68678 v 7.03678 c 1.5262,-1.19562 3.1351,-2.57509 4.8059,-4.16202 -0.9018,-0.9243 -1.7965,-1.88832 -2.6846,-2.87476 z m 7.5923,0 c 0.014,0.0142 0.028,0.0286 0.042,0.0429 0.014,-0.0143 0.028,-0.0286 0.041,-0.0429 z m 5.4942,0 c -0.8521,0.96796 -1.7116,1.91465 -2.5792,2.82773 4.7096,4.34039 8.9049,7.07846 11.9068,8.30441 v -3.72846 h 4.8974 c -0.2397,-1.93176 -0.9137,-4.44667 -2.0728,-7.40368 z m 16.4693,0 c 0.9763,2.73188 1.5796,5.23034 1.7683,7.40368 h 3.6835 v -7.40368 z m -21.8824,5.66167 c -0.6302,0.60383 -1.2576,1.18144 -1.8821,1.74201 h 3.8256 c -0.6444,-0.55939 -1.2914,-1.13545 -1.9435,-1.74201 z m 4.9459,4.20388 v 28.11869 h 9.7948 v -22.65753 c -2.8783,-0.84135 -6.2243,-2.72308 -9.7948,-5.46116 z" />
  </g>
</svg>
