<?xml version="1.0" encoding="UTF-8" standalone="no"?>
<!-- Created with Inkscape (http://www.inkscape.org/) -->

<svg
   width="131.59926mm"
   height="131.59921mm"
   viewBox="0 0 131.59926 131.59921"
   version="1.1"
   id="svg1"
   xmlns="http://www.w3.org/2000/svg"
   xmlnsSvg="http://www.w3.org/2000/svg">
  <defs
     id="defs1" />
  <g
     id="layer1"
     transform="translate(-1077.1187,46.831248)">
    <path
       id="path2-2-56-4"
       style="fill:#ffffff;stroke-width:1"
       d="m 1142.9184,-46.83125 a 65.799622,65.799622 0 0 0 -65.7997,65.799601 65.799622,65.799622 0 0 0 65.7997,65.799601 65.799622,65.799622 0 0 0 65.7996,-65.799601 65.799622,65.799622 0 0 0 -65.7996,-65.799601 z m -6e-4,8.000028 c 31.8812,0 57.8006,25.919469 57.8006,57.800607 0,31.881148 -25.9191,57.798539 -57.8006,57.798539 -31.8813,0 -57.799,-25.917091 -57.799,-57.798539 0,-31.881438 25.918,-57.800607 57.799,-57.800607 z m -41.7716,26.204086 c -1.3651,0 -2.4639,1.098335 -2.4639,2.463415 v 37.247339 c 0,1.365068 1.0988,2.463416 2.4639,2.463416 h 13.6204 v -0.0057 h 28.1636 v 0.0057 h 5.0245 V 14.359847 c 0,-5.9008761 4.1907,-10.7918112 9.7664,-11.8793783 V -10.163721 c 0,-1.36508 -1.0993,-2.463415 -2.4645,-2.463415 z m 59.0641,19.869588 c -4.4902,0 -8.1096,3.61895 -8.1096,8.109066 v 31.703491 c 0,4.490114 3.6194,8.109066 8.1096,8.109066 h 15.5975 c 4.4901,0 8.1096,-3.618952 8.1096,-8.109066 V 15.351518 c 0,-4.490116 -3.6195,-8.109066 -8.1096,-8.109066 z m -42.587,24.640873 c -3.9317,3.70706 -7.2002,7.088084 -7.2606,8.892997 -0.077,2.316733 5.0678,2.066557 8.9116,1.973007 3.8436,-0.09351 6.3847,-0.03021 8.9271,0.03204 2.5423,-0.06224 5.0851,-0.12554 8.9287,-0.03204 3.8439,0.09351 8.9877,0.343726 8.91,-1.973007 -0.06,-1.804899 -3.3284,-5.185995 -7.26,-8.892997 z m 50.2677,12.508281 a 2.5000815,2.5000815 0 0 1 2.5001,2.500105 2.5000815,2.5000815 0 0 1 -2.5001,2.500106 2.5000815,2.5000815 0 0 1 -2.5001,-2.500106 2.5000815,2.5000815 0 0 1 2.5001,-2.500105 z" />
  </g>
</svg>
