<?xml version="1.0" encoding="UTF-8" standalone="no"?>
<!-- Created with Inkscape (http://www.inkscape.org/) -->

<svg
   width="131.5992mm"
   height="131.59921mm"
   viewBox="0 0 131.5992 131.59921"
   version="1.1"
   id="svg1"
   xmlns="http://www.w3.org/2000/svg"
   xmlnsSvg="http://www.w3.org/2000/svg">
  <defs
     id="defs1" />
  <g
     id="layer1"
     transform="translate(-1330.787,-340.92287)">
    <path
       id="path2-2-56-9"
       style="fill:#ffffff;stroke-width:1"
       d="m 1396.5866,340.92286 a 65.799622,65.799622 0 0 0 -65.7996,65.7996 65.799622,65.799622 0 0 0 65.7996,65.7996 65.799622,65.799622 0 0 0 65.7996,-65.7996 65.799622,65.799622 0 0 0 -65.7996,-65.7996 z m -5e-4,8.00003 c 31.8811,0 57.8006,25.91947 57.8006,57.8006 0,31.88115 -25.9192,57.79854 -57.8006,57.79854 -31.8815,0 -57.7991,-25.91709 -57.7991,-57.79854 0,-31.88143 25.9179,-57.8006 57.7991,-57.8006 z m -41.8337,30.68185 v 5.1e-4 c -0.117,-0.002 -0.2247,0.005 -0.3214,0.0253 -0.7592,-0.0787 -1.6257,0.0582 -2.558,0.30541 -1.5741,0.41734 -3.3325,1.14443 -3.8902,2.41277 -0.5576,1.26836 0.086,3.07768 1.9601,3.43855 1.4567,0.28043 3.6564,-0.31354 5.1527,-1.21284 0.9539,2.59009 2.4273,6.12105 3.7098,8.97723 0.1837,0.704 0.6703,1.7098 1.5663,3.31969 0.4324,0.85384 0.7881,1.48388 1.0847,1.89911 0.365,0.6367 0.6526,1.14775 1.1044,1.93012 3.5126,6.08394 9.7241,16.84284 13.5955,22.22241 0.1038,0.14426 0.1899,0.24423 0.2904,0.38086 0.027,0.31605 -0.014,0.9916 -0.2031,2.69544 -0.2255,2.03764 -0.655,5.54046 1.5472,8.19847 a 5.9800339,5.9800339 0 0 0 -1.6314,4.08709 5.9800339,5.9800339 0 0 0 5.98,5.97999 5.9800339,5.9800339 0 0 0 5.98,-5.97999 5.9800339,5.9800339 0 0 0 0,-0.19121 c 5.5774,0.62407 12.2209,0.47882 16.7809,0.39481 1.5865,-0.0292 2.8629,-0.0498 3.9951,-0.0744 a 5.9800339,5.9800339 0 0 0 5.9712,5.85132 5.9800339,5.9800339 0 0 0 5.98,-5.98 5.9800339,5.9800339 0 0 0 -5.98,-5.97999 5.9800339,5.9800339 0 0 0 -3.8835,1.43557 c -2.9328,-0.21669 -6.6416,-0.26223 -10.4247,-0.24392 -6.3411,0.0307 -12.8411,0.23047 -15.7701,-1.04438 -2.1722,-0.94546 -2.379,-2.70126 -2.4825,-4.39094 1.1501,0.23619 2.4703,0.24133 4.2215,0.24133 h 20.0163 c 6.6548,0 11.5698,1.4e-4 15.6921,-6.21461 4.1224,-6.21468 7.4526,-18.64428 8.723,-24.96489 1.2703,-6.32068 0.4799,-6.53203 -11.0123,-6.63783 -5.7465,-0.0529 -14.1687,-0.0795 -22.6797,-0.063 -8.5111,0.0163 -17.111,0.0755 -23.2131,0.19379 -4.6513,0.0901 -7.8372,0.21536 -10.0552,0.38705 -0.1745,-0.35815 -0.356,-0.72378 -0.5421,-1.09812 -1.4335,-2.88242 -3.1426,-6.21959 -4.6803,-8.05687 -1.5377,-1.83727 -2.904,-2.17451 -3.8473,-2.23553 -0.059,-0.004 -0.1162,-0.007 -0.1716,-0.008 z m 49.704,18.82365 c 0.3645,0.0408 0.6612,1.28968 0.7519,3.72587 0.1707,4.58575 -0.388,13.37837 -1.0981,17.34572 -0.7102,3.96729 -1.5718,3.10887 -1.7426,-1.47692 -0.1707,-4.58574 0.3497,-12.89942 1.0599,-16.86667 0.3329,-1.85965 0.7073,-2.76396 1.0289,-2.728 z m -10.5689,0.03 c 0.3666,-0.0125 0.8408,1.18022 1.2837,3.57756 0.8335,4.51257 1.555,13.29356 1.4273,17.32194 -0.1277,4.02832 -1.1049,3.30386 -1.9384,-1.20872 -0.8335,-4.51262 -1.5235,-12.81358 -1.3958,-16.84186 0.06,-1.88826 0.2998,-2.83789 0.6232,-2.84892 z m 21.0174,0.23667 c 0.4062,-0.0405 0.5211,1.24477 0.1875,3.80442 -0.593,4.55047 -2.6035,13.12812 -3.9625,16.92248 -1.359,3.79434 -2.0663,2.80483 -1.4733,-1.74563 0.593,-4.55048 2.4867,-12.66212 3.8458,-16.45636 0.5945,-1.65999 1.0865,-2.49339 1.4025,-2.52491 z m -33.0771,0.47388 c 0.3761,0.0215 1.1239,1.04778 2.1311,3.10937 2.0145,4.12317 5.067,12.38759 6.0255,16.30236 0.9585,3.91471 -0.1771,3.47981 -2.1916,-0.64337 -2.0144,-4.12311 -4.9078,-11.93448 -5.8663,-15.84916 -0.4792,-1.95734 -0.4745,-2.94071 -0.099,-2.9192 z m 42.8713,0.0212 c 0.4078,0.0194 0.3335,1.30771 -0.3711,3.79099 -1.2525,4.41471 -4.4968,12.60614 -6.3965,16.16077 -1.8996,3.55462 -2.4545,2.47219 -1.202,-1.94252 1.2526,-4.41468 4.3129,-12.16182 6.2126,-15.71635 0.8311,-1.55511 1.4398,-2.30796 1.757,-2.29289 z m -53.2515,0.57103 c 0.3758,-0.025 1.2439,0.9013 2.4975,2.82308 2.5071,3.84348 6.5546,11.66891 7.9881,15.43575 1.4336,3.76677 0.253,3.47511 -2.2541,-0.36845 -2.5071,-3.84348 -6.3407,-11.23904 -7.7742,-15.0058 -0.7168,-1.88339 -0.8332,-2.85959 -0.4573,-2.88458 z" />
  </g>
</svg>
