<?xml version="1.0" encoding="UTF-8" standalone="no"?>
<!-- Created with Inkscape (http://www.inkscape.org/) -->

<svg
   width="131.5992mm"
   height="131.59921mm"
   viewBox="0 0 131.5992 131.59921"
   version="1.1"
   id="svg1"
   xmlns="http://www.w3.org/2000/svg"
   xmlnsSvg="http://www.w3.org/2000/svg">
  <defs
     id="defs1" />
  <g
     id="layer1"
     transform="translate(-1330.3203,-136.89953)">
    <path
       id="path2-2-56-5"
       style="fill:#ffffff;stroke-width:1"
       d="m 1396.1199,136.89954 a 65.799622,65.799622 0 0 0 -65.7996,65.7996 65.799622,65.799622 0 0 0 65.7996,65.7996 65.799622,65.799622 0 0 0 65.7996,-65.7996 65.799622,65.799622 0 0 0 -65.7996,-65.7996 z m -5e-4,8.00003 c 31.8812,0 57.8006,25.91943 57.8006,57.8006 0,31.88118 -25.9191,57.79854 -57.8006,57.79854 -31.8815,0 -57.799,-25.91706 -57.799,-57.79854 0,-31.88147 25.9178,-57.8006 57.799,-57.8006 z" />
    <path
       id="path9"
       style="fill:#ffffff;fill-opacity:1;stroke:none;stroke-width:1"
       d="m 1397.2987,175.83785 a 27.369984,27.369984 0 0 0 -27.3704,27.3699 27.369984,27.369984 0 0 0 0.6831,5.75314 c -0.029,-0.38667 -0.053,-0.77447 -0.054,-1.16737 -10e-5,-8.85502 7.163,-16.01563 16.014,-16.01556 1.5545,0.001 3.0962,0.23334 4.5801,0.67748 2.0871,-3.55989 5.9161,-5.80011 10.111,-5.80482 0.9277,5.5e-4 1.8475,0.12177 2.7445,0.33797 1.6188,-3.18038 4.1683,-5.71771 7.2321,-7.33082 a 27.369984,27.369984 0 0 0 -13.9402,-3.81992 z m -23.0286,42.16228 a 27.369984,27.369984 0 0 0 23.0286,12.57804 27.369984,27.369984 0 0 0 18.1069,-6.86883 h -27.5162 c -0.424,0.0456 -0.8497,0.0805 -1.2774,0.092 h -0.041 -0.041 c -0.4277,-0.0115 -0.8529,-0.0464 -1.2769,-0.092 h -0.096 c -0.675,0 -1.3226,-0.10931 -1.9296,-0.30644 l 0.1659,0.045 c -3.6838,-0.74581 -6.8533,-2.72335 -9.123,-5.44773 z" />
    <path
       id="rect10"
       d="m 1441.6924,177.23994 c 0.3218,0.56294 -1.4287,2.16511 -3.9251,3.59232 l -8.936,5.10899 c -2.4963,1.42721 -4.7651,2.12299 -5.087,1.56005 -0.3218,-0.56293 1.4288,-2.16511 3.9251,-3.59231 l 8.936,-5.109 c 2.4964,-1.4272 4.7651,-2.12299 5.087,-1.56005 z m -43.804,-26.40843 c 0.6484,0.003 1.1607,2.31986 1.1485,5.19533 l -0.043,10.29336 c -0.012,2.87547 -0.544,5.18818 -1.1924,5.18543 -0.6485,-0.003 -1.1607,-2.31985 -1.1486,-5.19532 l 0.044,-10.29337 c 0.012,-2.87547 0.5439,-5.18817 1.1924,-5.18543 z m -44.7724,24.73115 c 0.3266,-0.5602 2.5894,0.15474 5.0736,1.60301 l 8.8925,5.18437 c 2.4842,1.44826 4.2211,3.06518 3.8945,3.62538 -0.3266,0.5602 -2.5894,-0.15475 -5.0735,-1.60301 l -8.8926,-5.18437 c -2.4841,-1.44827 -4.2211,-3.06519 -3.8945,-3.62538 z m -0.9684,51.13958 c -0.3218,-0.56294 1.4287,-2.16511 3.9251,-3.59232 l 8.936,-5.10899 c 2.4963,-1.42721 4.7651,-2.12299 5.087,-1.56005 0.3218,0.56293 -1.4288,2.16511 -3.9251,3.59231 l -8.936,5.109 c -2.4964,1.4272 -4.7651,2.12299 -5.087,1.56005 z m 43.804,26.40843 c -0.6484,-0.003 -1.1607,-2.31986 -1.1485,-5.19533 l 0.043,-10.29336 c 0.012,-2.87547 0.544,-5.18818 1.1924,-5.18543 0.6485,0.003 1.1607,2.31985 1.1486,5.19532 l -0.044,10.29337 c -0.012,2.87547 -0.5439,5.18817 -1.1924,5.18543 z m 44.7724,-24.73115 c -0.3266,0.5602 -2.5894,-0.15474 -5.0736,-1.60301 l -8.8925,-5.18437 c -2.4842,-1.44826 -4.2211,-3.06518 -3.8945,-3.62538 0.3266,-0.5602 2.5894,0.15475 5.0735,1.60301 l 8.8926,5.18437 c 2.4841,1.44827 4.2211,3.06519 3.8945,3.62538 z"
       style="fill:#ffffff;fill-opacity:1;stroke:none;stroke-width:1" />
    <path
       id="path12"
       style="fill:#ffffff;fill-opacity:1;stroke:none;stroke-width:0.588461"
       d="m 1419.1171,179.20375 a 15.498576,15.498576 0 0 0 -14.2946,9.58784 10.24263,10.24263 0 0 0 -3.5589,-0.64043 10.24263,10.24263 0 0 0 -9.374,6.14091 14.512585,14.512585 0 0 0 -5.3192,-1.01446 14.512585,14.512585 0 0 0 -14.5127,14.51267 14.512585,14.512585 0 0 0 11.6328,14.18758 c 0.4615,0.14988 0.9534,0.23325 1.4661,0.23325 h 0.132 a 14.512585,14.512585 0 0 0 1.2818,0.0915 14.512585,14.512585 0 0 0 1.2818,-0.0915 h 45.3853 a 14.04287,14.04287 0 0 0 1.9134,0.13684 14.04287,14.04287 0 0 0 14.0428,-14.04284 14.04287,14.04287 0 0 0 -14.0428,-14.04284 14.04287,14.04287 0 0 0 -0.5449,0.039 15.498576,15.498576 0 0 0 -15.4889,-15.09744 z m -10.7878,26.57311 a 15.498576,15.498576 0 0 0 1.3453,1.16772 h -2.7852 a 10.24263,10.24263 0 0 0 1.4399,-1.16772 z" />
  </g>
</svg>
